<svg xmlns="http://www.w3.org/2000/svg" xmlns:xlink="http://www.w3.org/1999/xlink" viewBox="0,0,256,256" width="50px" height="50px"><g fill="#ffffff" fill-rule="nonzero" stroke="none" stroke-width="1" stroke-linecap="butt" stroke-linejoin="miter" stroke-miterlimit="10" stroke-dasharray="" stroke-dashoffset="0" font-family="none" font-weight="none" font-size="none" text-anchor="none" style="mix-blend-mode: normal"><g transform="scale(5.12,5.12)"><path d="M25,2c-12.6907,0 -23,10.3093 -23,23c0,12.69071 10.3093,23 23,23c12.69071,0 23,-10.30929 23,-23c0,-12.6907 -10.30929,-23 -23,-23zM25,4c11.60982,0 21,9.39018 21,21c0,11.60982 -9.39018,21 -21,21c-11.60982,0 -21,-9.39018 -21,-21c0,-11.60982 9.39018,-21 21,-21zM15.00195,18l-4.03516,0.00195c0,0 -0.2309,-0.01301 -0.50977,0.02344c-0.27887,0.03645 -0.69084,0.05337 -1.11328,0.53125l-0.00195,0.00195l-0.00195,0.00195c-0.37576,0.42972 -0.36143,0.92987 -0.31445,1.20508c0.0468,0.2742 0.15157,0.47895 0.15234,0.48047v0.00195c0.0388,0.09518 2.96864,7.27388 6.66211,11.13086c2.60525,2.72238 5.39156,3.62109 7.87305,3.62109h1.28711c0.42346,0 0.80165,-0.01927 1.2207,-0.23633c0.41905,-0.21706 0.7793,-0.8161 0.7793,-1.28125c0,-0.50117 0.01231,-0.98702 0.07617,-1.25781c0.05965,-0.25289 0.03663,-0.19082 0.06055,-0.19141c0.02397,0.0052 0.06761,0.01531 0.15039,0.05273c0.17839,0.08065 0.45404,0.26069 0.75977,0.49805c0.6105,0.47396 1.33363,1.16157 2.14453,1.69336c1.16145,0.76978 2.42188,0.72266 2.42188,0.72266h4.15625l0.04492,-0.00391c0,0 0.63776,-0.0145 1.29297,-0.41602c0.32761,-0.20076 0.71694,-0.56904 0.84766,-1.12109c0.13072,-0.55205 -0.03619,-1.13124 -0.35742,-1.64062c-0.11735,-0.18684 -0.68702,-1.01248 -2.96094,-3.03125c-0.58746,-0.52102 -0.98808,-0.88983 -1.14648,-1.08594c-0.05624,-0.06962 -0.06095,-0.0629 -0.07227,-0.06641c0.01325,-0.03419 0.14463,-0.31086 0.49609,-0.76758c0.3663,-0.47601 0.92293,-1.13924 1.63867,-2.05078c0.91224,-1.16219 1.5523,-2.2797 1.95508,-3.22266c0.20139,-0.47148 0.34415,-0.89929 0.42969,-1.28711c0.08554,-0.38781 0.1538,-0.71017 0.02734,-1.16992c-0.09432,-0.34223 -0.35047,-0.64875 -0.60156,-0.81055c-0.25109,-0.1618 -0.48519,-0.22274 -0.69531,-0.26172c-0.42025,-0.07796 -0.79103,-0.06445 -1.13672,-0.06445c-0.72381,0 -3.94144,0.02539 -4.20703,0.02539c-0.31171,0 -0.80896,0.12981 -1.03906,0.26172c-0.57127,0.32716 -0.75,0.77539 -0.75,0.77539l-0.05469,0.0957l-0.03125,0.10742c0,0 -0.73269,2.3702 -1.48633,3.5918h-0.00195c-0.88619,1.43911 -1.54723,2.00995 -1.83789,2.17188c-0.03087,0.0172 -0.01377,0.00806 -0.03516,0.01953c-0.02273,-0.06621 -0.05142,-0.15738 -0.07031,-0.32617c-0.04251,-0.38023 -0.01758,-0.91569 -0.01758,-1.43359c0,-1.43442 0.10772,-2.32888 -0.01172,-3.17578c-0.05972,-0.42345 -0.21176,-0.89502 -0.55859,-1.25781c-0.34683,-0.36279 -0.79482,-0.54137 -1.24219,-0.64453h-0.00195c-0.46623,-0.10737 -0.96868,-0.19958 -2.17578,-0.21094c-1.538,-0.01434 -2.53965,0.03334 -3.42969,0.42969l-0.00977,0.00586l-0.00781,0.00391c-0.35167,0.16519 -0.6289,0.35454 -0.87305,0.60742c-0.12207,0.12644 -0.2669,0.21852 -0.36719,0.62109c-0.05015,0.20129 -0.05565,0.58212 0.17188,0.89063c0.22752,0.3085 0.54638,0.40155 0.73438,0.42578c-0.03468,-0.0045 0.1479,0.03568 0.28906,0.10547c0.14116,0.06979 0.26372,0.17028 0.29492,0.21094v0.00195c-0.01305,-0.01695 0.1225,0.31991 0.1582,0.62695c0.0357,0.30704 0.0293,0.55469 0.0293,0.55469l-0.00195,0.06055l0.00586,0.06055c0,0 0.06139,0.67946 0.0293,1.38086c-0.01605,0.3507 -0.06038,0.70369 -0.11914,0.91992c-0.00311,0.01144 -0.00453,0.00743 -0.00781,0.01758c-0.25037,-0.17486 -0.8277,-0.78414 -1.62305,-2.09766c-0.73523,-1.21506 -1.42383,-3.40039 -1.42383,-3.40039l-0.01562,-0.04883l-0.01758,-0.04687c0,0 -0.12838,-0.48818 -0.69531,-0.88672c-0.53138,-0.37408 -1.03711,-0.42578 -1.03711,-0.42578zM14.76953,20c0.0572,0.02091 0.17678,0.064 0.19922,0.07422l-0.02344,-0.07031c0,0 0.03079,0.0707 0.03125,0.07227c0.00025,0.00014 0.00381,0.00185 0.00391,0.00195v0.00195h0.00195c-0.05026,-0.03516 -0.00765,-0.00026 -0.00195,0.00781c0.02762,0.09423 0.63822,2.19753 1.5918,3.77344c0.86868,1.43462 1.51045,2.23833 2.21094,2.71875c0.69981,0.47995 1.64083,0.43049 2.11914,0.18164c0.63923,-0.33197 0.81791,-0.87758 0.94141,-1.33203c0.12349,-0.45445 0.16755,-0.91551 0.1875,-1.35156c0.03807,-0.83199 -0.02704,-1.51259 -0.0332,-1.58008c0.001,-0.03759 0.0099,-0.36265 -0.04102,-0.80078c-0.05133,-0.44148 -0.14334,-0.99011 -0.53516,-1.54102c0.43889,-0.06521 0.68256,-0.16451 1.56836,-0.15625c1.12964,0.01063 1.30148,0.05776 1.74609,0.16016c0.24214,0.05584 0.26902,0.1021 0.24609,0.07813c-0.02292,-0.02398 -0.002,-0.04 0.02539,0.1543c0.05482,0.3885 -0.00781,1.3849 -0.00781,2.89648c0,0.4261 -0.04114,1.02698 0.0293,1.65625c0.07039,0.62887 0.26694,1.43353 1.02734,1.9043c0.43326,0.26814 1.26093,0.36036 2.04102,-0.07422c0.78009,-0.43458 1.5806,-1.26825 2.56641,-2.86914c0.97379,-1.57844 1.55613,-3.65369 1.61914,-3.87305c0,0 0.01111,-0.00722 0.01758,-0.01172c0.01767,0.00085 -0.00481,0.00391 0.02344,0.00391c0.37041,0 3.53084,-0.02539 4.20703,-0.02539c0.18603,0 0.26771,0.01001 0.40625,0.01563c-0.05599,0.2159 -0.13126,0.46732 -0.26953,0.79102c-0.32497,0.7608 -0.8827,1.74758 -1.68945,2.77539c-0.69526,0.88546 -1.2354,1.52771 -1.64844,2.06445c-0.41304,0.53674 -0.73752,0.96011 -0.87305,1.57227c-0.13553,0.61216 0.12306,1.30259 0.47656,1.74023c0.3535,0.43764 0.79096,0.80624 1.375,1.32422c2.20009,1.95323 2.56106,2.54445 2.5957,2.59961v0.00195c0.03715,0.05891 0.01306,-0.00034 0.02734,0.0293c-0.12475,0.03889 -0.27323,0.08287 -0.28711,0.08594h-4.04687h-0.00586c0,0 -0.74432,-0.0244 -1.29687,-0.39062l-0.00195,-0.00195h-0.00195c-0.58455,-0.38287 -1.29104,-1.03947 -2.01758,-1.60352c-0.36327,-0.28202 -0.73313,-0.54629 -1.16211,-0.74023c-0.42898,-0.19394 -0.97268,-0.33144 -1.54492,-0.16016c-0.82826,0.2479 -1.28791,1.03615 -1.43555,1.66211c-0.10598,0.44934 -0.09031,0.8401 -0.09375,1.23242c-0.02853,0.0015 -0.00384,0.00195 -0.03711,0.00195h-1.28711c-2.03251,0 -4.147,-0.62047 -6.42773,-3.00391c-2.96517,-3.09644 -5.61069,-9.08449 -6.00781,-9.99414zM32.21289,20.00781c-0.01815,0.00404 0.03377,0.00796 0.07617,0.01172c-0.00574,0.00311 0.00049,-0.00275 -0.00781,0.00195c-0.00084,-0.01671 -0.04396,-0.01911 -0.06836,-0.01367z"></path></g></g></svg>